<svg width="4528" height="476" viewBox="0 0 4528 476" fill="none" xmlns="http://www.w3.org/2000/svg">
<path fill-rule="evenodd" clip-rule="evenodd" d="M156 32.0825V32H114V0H247.509C268.888 0 288.958 1.96423 307.719 5.89267C326.48 9.82112 342.841 16.5868 356.803 26.1898C370.765 35.7928 381.672 48.4512 389.526 64.1651C397.816 79.4425 401.961 98.4301 401.961 121.128C401.961 139.461 398.47 155.829 391.489 170.234C384.945 184.202 376.001 196.205 364.657 206.245C353.749 215.848 340.66 223.486 325.389 229.161C310.555 234.399 295.066 237.673 278.923 238.982L415.704 463.56H370.547L238.347 241.601H151.304V463.56H114V210H156V209.519H242.273C281.977 209.519 312.3 202.098 333.243 187.257C354.185 172.416 364.657 150.373 364.657 121.128C364.657 104.541 361.384 90.5731 354.84 79.2242C348.732 67.8753 340.224 58.7089 329.316 51.7249C318.408 44.7409 305.319 39.7212 290.049 36.6658C275.214 33.6103 259.071 32.0825 241.619 32.0825H156ZM590.219 458.977C612.907 470.326 641.266 476 675.298 476C709.33 476 737.471 470.326 759.723 458.977C782.411 447.628 800.299 433.005 813.388 415.109C826.914 397.212 836.294 377.352 841.53 355.527C847.202 333.265 850.038 311.441 850.038 290.052V0H812.734V285.469C812.734 304.238 810.552 323.008 806.189 341.777C801.826 360.547 794.409 377.352 783.938 392.193C773.467 407.033 759.287 419.255 741.398 428.858C723.946 438.025 701.913 442.608 675.298 442.608C648.247 442.608 625.778 438.025 607.889 428.858C590.437 419.255 576.475 407.033 566.004 392.193C555.969 376.915 548.77 359.892 544.407 341.122C540.48 322.353 538.517 303.802 538.517 285.469V0H501.213V290.052C501.213 311.441 503.831 333.265 509.066 355.527C514.738 377.352 524.119 397.212 537.208 415.109C550.297 433.005 567.967 447.628 590.219 458.977ZM1031.85 0H974.255V463.56H1011.56V47.7964H1012.87L1191.53 463.56H1212.48L1391.14 47.7964H1392.45V463.56H1429.76V0H1372.16L1202.66 401.359L1031.85 0ZM1692.58 431.477H1595.07V431H1557.76V463.56H1696.51C1720.07 463.56 1741.88 460.941 1761.95 455.703C1782.46 450.028 1799.91 441.953 1814.31 431.477C1829.14 421.001 1840.71 407.906 1849 392.193C1857.72 376.042 1862.09 357.491 1862.09 336.539C1862.09 318.643 1859.03 302.711 1852.92 288.743C1847.25 274.775 1839.4 262.989 1829.36 253.386C1819.33 243.347 1807.77 235.49 1794.68 229.816C1781.59 224.141 1768.06 220.649 1754.1 219.34V218.03C1778.97 212.356 1799.48 200.789 1815.62 183.329C1831.76 165.869 1839.83 143.389 1839.83 115.89C1839.83 93.1921 1835.47 74.4227 1826.75 59.5818C1818.02 44.7409 1806.46 32.9555 1792.06 24.2256C1778.1 15.0592 1762.17 8.72994 1744.28 5.23793C1726.83 1.74598 1709.38 0 1691.93 0H1557.76V32H1604V32.0825H1684.73C1700.44 32.0825 1715.27 33.6103 1729.23 36.6658C1743.63 39.7212 1756.06 44.7409 1766.54 51.7249C1777.44 58.2724 1785.95 67.2205 1792.06 78.5695C1798.6 89.4819 1801.88 102.795 1801.88 118.509C1801.88 134.659 1798.6 148.409 1792.06 159.758C1785.51 170.67 1777.01 179.619 1766.54 186.602C1756.5 193.15 1744.94 197.951 1731.85 201.007C1719.2 204.062 1706.76 205.59 1694.55 205.59H1604V206H1557.76V237H1605V237.018H1700.44C1717.89 237.018 1734.25 238.982 1749.52 242.911C1764.79 246.839 1777.88 252.732 1788.79 260.589C1799.69 268.446 1808.2 278.703 1814.31 291.362C1820.86 303.584 1824.13 318.206 1824.13 335.23C1824.13 352.253 1820.64 366.876 1813.66 379.098C1806.68 391.32 1797.08 401.359 1784.86 409.216C1773.08 417.073 1759.12 422.747 1742.97 426.239C1727.27 429.731 1710.47 431.477 1692.58 431.477ZM2226.56 430.168H2006.66V0H1969.36V463.56H2226.56V430.168ZM2591 430.168H2337.07V430H2300.42V463.56H2591V430.168ZM2337.07 238.982V239H2300.42V206H2337.07V206.245H2566.79V238.982H2337.07ZM2300.42 33V0H2582.49V33.392H2346V33H2300.42ZM2850.51 0.21875H2887.8V205.629H3157.99V0.21875H3195.28V463.372H3157.99V240.3H2887.8V463.372H2850.51V0.21875ZM3373.67 304.408H3374.34L3360.73 338.425H3359.93L3307.6 463.372H3266.38L3467.23 0.21875H3504.52L3701.44 463.372H3660.22L3607.88 338.425H3607.77L3593 301L3592.74 301.004L3484.89 39.469L3373.67 304.408ZM3936.77 475.801C3902.75 475.801 3874.4 470.132 3851.72 458.793C3829.47 447.454 3811.81 432.844 3798.73 414.963C3785.64 397.083 3776.26 377.24 3770.59 355.434C3765.36 333.192 3762.74 311.386 3762.74 290.017V0.21875H3800.03V285.438C3800.03 303.754 3802 322.289 3805.92 341.042C3810.28 359.795 3817.48 376.803 3827.51 392.067C3837.98 406.895 3851.94 419.107 3869.38 428.701C3887.26 437.859 3909.73 442.439 3936.77 442.439C3963.37 442.439 3985.4 437.859 4002.84 428.701C4020.73 419.107 4034.9 406.895 4045.37 392.067C4055.84 377.24 4063.25 360.449 4067.61 341.696C4071.97 322.943 4074.15 304.19 4074.15 285.438V0.21875H4111.44V290.017C4111.44 311.386 4108.61 333.192 4102.94 355.434C4097.71 377.24 4088.33 397.083 4074.81 414.963C4061.72 432.844 4043.84 447.454 4021.16 458.793C3998.92 470.132 3970.79 475.801 3936.77 475.801ZM4522.17 33.5815L4242.16 430.009H4527.4V463.372H4196.36V430.664L4477.02 33.5815H4203.56V0.21875H4522.17V33.5815Z" fill="url(#paint0_linear_1845_1104)"/>
<circle cx="112.726" cy="125.12" r="35.7789" transform="rotate(9.50918 112.726 125.12)" stroke="white" stroke-width="4.22046"/>
<circle cx="112.954" cy="125.449" r="50.2382" transform="rotate(9.50918 112.954 125.449)" stroke="white" stroke-width="10.6651"/>
<path d="M139.543 62.7188C149.909 67.3647 158.936 74.5433 165.793 83.5917C172.65 92.6401 177.114 103.267 178.774 114.491C180.435 125.715 179.237 137.174 175.292 147.812C171.347 158.449 164.782 167.921 156.203 175.354" stroke="#66FCF1" stroke-width="7.59683"/>
<path d="M69.5215 176.773C60.4473 169.383 53.4499 159.76 49.2158 148.85C44.9817 137.94 43.6563 126.116 45.3694 114.539C47.0826 102.962 51.7756 92.0292 58.9881 82.8127C66.2006 73.5963 75.6849 66.4129 86.5107 61.9671" stroke="#66FCF1" stroke-width="7.59683"/>
<path d="M166.293 188.247C177.011 179.153 185.238 167.479 190.197 154.327C195.156 141.174 196.685 126.975 194.64 113.068C192.595 99.1614 187.043 86.0041 178.506 74.8362C169.97 63.6684 158.731 54.8577 145.849 49.2344" stroke="#66FCF1" stroke-width="7.29718"/>
<path d="M81.5215 48.4125C68.1096 53.8695 56.3633 62.7485 47.4548 74.1634C38.5463 85.5782 32.7872 99.1297 30.7521 113.466C28.717 127.802 30.4772 142.42 35.8569 155.864C41.2366 169.307 50.0478 181.104 61.4111 190.078" stroke="#66FCF1" stroke-width="7.29718"/>
<circle cx="113.399" cy="123.407" r="13.0834" transform="rotate(-0.803382 113.399 123.407)" fill="#66FCF1"/>
<circle cx="111.881" cy="75.3151" r="3.79841" transform="rotate(-0.803382 111.881 75.3151)" fill="#66FCF1"/>
<circle cx="61.8913" cy="122.44" r="3.79841" transform="rotate(-0.803382 61.8913 122.44)" fill="#66FCF1"/>
<circle cx="163.16" cy="120.182" r="3.79841" transform="rotate(-0.803382 163.16 120.182)" fill="#66FCF1"/>
<circle cx="113.289" cy="175.745" r="3.79841" transform="rotate(-0.803382 113.289 175.745)" fill="#66FCF1"/>
<defs>
<linearGradient id="paint0_linear_1845_1104" x1="114" y1="238" x2="4527.4" y2="238" gradientUnits="userSpaceOnUse">
<stop offset="0.197412" stop-color="#66FCF1"/>
<stop offset="0.821552" stop-color="white"/>
</linearGradient>
</defs>
</svg>
