<svg width="4414" height="476" viewBox="0 0 4414 476" fill="none" xmlns="http://www.w3.org/2000/svg">
<path fill-rule="evenodd" clip-rule="evenodd" d="M42 32.0859V32H0V0H133.509C154.888 0 174.958 1.96094 193.719 5.89062C212.48 9.82031 228.842 16.5859 242.803 26.1875C256.765 35.7891 267.673 48.4531 275.526 64.1641C283.815 79.4453 287.961 98.4297 287.961 121.125C287.961 139.461 284.47 155.828 277.489 170.234C270.944 184.203 262.001 196.203 250.656 206.242C239.749 215.852 226.66 223.484 211.39 229.164C196.555 234.398 181.066 237.672 164.923 238.984L301.704 463.562H256.547L124.347 241.602H37.3037V463.562H0V210H42V209.516H128.273C167.977 209.516 198.3 202.102 219.243 187.258C240.186 172.414 250.656 150.375 250.656 121.125C250.656 104.539 247.385 90.5703 240.84 79.2266C234.731 67.875 226.224 58.7109 215.316 51.7266C204.408 44.7422 191.319 39.7188 176.049 36.6641C161.214 33.6094 145.071 32.0859 127.619 32.0859H42ZM476.219 458.977C498.907 470.328 527.267 476 561.298 476C595.33 476 623.472 470.328 645.723 458.977C668.411 447.625 686.299 433.008 699.389 415.109C712.914 397.211 722.294 377.352 727.53 355.523C733.202 333.266 736.038 311.438 736.038 290.055V0H698.734V285.469C698.734 304.242 696.553 323.008 692.189 341.773C687.826 360.547 680.409 377.352 669.938 392.195C659.467 407.031 645.287 419.258 627.398 428.859C609.946 438.023 587.913 442.609 561.298 442.609C534.247 442.609 511.777 438.023 493.89 428.859C476.438 419.258 462.476 407.031 452.004 392.195C441.969 376.914 434.771 359.891 430.407 341.125C426.48 322.352 424.517 303.805 424.517 285.469V0H387.213V290.055C387.213 311.438 389.831 333.266 395.066 355.523C400.738 377.352 410.119 397.211 423.208 415.109C436.297 433.008 453.968 447.625 476.219 458.977ZM917.848 0H860.255V463.562H897.559V47.7969H898.868L1077.53 463.562H1098.48L1277.14 47.7969H1278.45V463.562H1315.76V0H1258.16L1088.66 401.359L917.848 0ZM1578.58 431.477H1481.07V431H1443.76V463.562H1582.51C1606.07 463.562 1627.88 460.938 1647.95 455.703C1668.46 450.031 1685.91 441.953 1700.31 431.477C1715.14 421 1726.71 407.906 1735 392.195C1743.72 376.039 1748.09 357.492 1748.09 336.539C1748.09 318.641 1745.03 302.711 1738.92 288.742C1733.25 274.773 1725.4 262.992 1715.36 253.383C1705.33 243.344 1693.77 235.492 1680.68 229.812C1667.59 224.141 1654.06 220.648 1640.1 219.336V218.031C1664.97 212.359 1685.48 200.789 1701.62 183.328C1717.76 165.867 1725.83 143.391 1725.83 115.891C1725.83 93.1953 1721.47 74.4219 1712.75 59.5781C1704.02 44.7422 1692.46 32.9531 1678.06 24.2266C1664.1 15.0625 1648.17 8.72656 1630.28 5.23438C1612.83 1.74219 1595.38 0 1577.93 0H1443.76V32H1490V32.0859H1570.73C1586.44 32.0859 1601.27 33.6094 1615.23 36.6641C1629.63 39.7188 1642.06 44.7422 1652.54 51.7266C1663.44 58.2734 1671.95 67.2188 1678.06 78.5703C1684.6 89.4844 1687.88 102.797 1687.88 118.508C1687.88 134.656 1684.6 148.406 1678.06 159.758C1671.51 170.672 1663.01 179.617 1652.54 186.602C1642.5 193.148 1630.94 197.953 1617.85 201.008C1605.2 204.062 1592.76 205.594 1580.54 205.594H1490V206H1443.76V237L1491 237.016H1586.44C1603.89 237.016 1620.25 238.984 1635.52 242.914C1650.79 246.836 1663.88 252.734 1674.79 260.586C1685.69 268.445 1694.2 278.703 1700.31 291.359C1706.86 303.586 1710.13 318.203 1710.13 335.227C1710.13 352.25 1706.64 366.875 1699.66 379.094C1692.68 391.32 1683.08 401.359 1670.86 409.219C1659.08 417.07 1645.12 422.75 1628.97 426.242C1613.27 429.734 1596.47 431.477 1578.58 431.477ZM2112.56 430.164H1892.66V0H1855.36V463.562H2112.56V430.164ZM2477 430.164H2223.07V430H2186.42V463.562H2477V430.164ZM2452.79 238.984L2223.07 239H2186.42V206H2223.07V206.242H2452.79V238.984ZM2186.42 33V0H2468.49V33.3906H2232V33H2186.42ZM2736.51 0.21875H2773.8V205.625H3043.99V0.21875H3081.28V463.375H3043.99V240.297H2773.8V463.375H2736.51V0.21875ZM3259.67 304.406H3260.34L3246.73 338.422H3245.93L3193.6 463.375H3152.38L3353.23 0.21875H3390.52L3587.44 463.375H3546.22L3493.88 338.422H3493.77L3479 301H3478.74L3370.89 39.4688L3259.67 304.406ZM3822.77 475.805C3788.75 475.805 3760.4 470.133 3737.72 458.797C3715.47 447.453 3697.81 432.844 3684.73 414.961C3671.64 397.086 3662.26 377.242 3656.59 355.438C3651.36 333.195 3648.74 311.383 3648.74 290.016V0.21875H3686.03V285.438C3686.03 303.758 3688 322.289 3691.92 341.039C3696.28 359.797 3703.48 376.805 3713.51 392.07C3723.98 406.898 3737.94 419.109 3755.38 428.703C3773.26 437.859 3795.73 442.438 3822.77 442.438C3849.37 442.438 3871.4 437.859 3888.84 428.703C3906.73 419.109 3920.9 406.898 3931.37 392.07C3941.83 377.242 3949.25 360.445 3953.61 341.695C3957.97 322.945 3960.15 304.188 3960.15 285.438V0.21875H3997.44V290.016C3997.44 311.383 3994.61 333.195 3988.94 355.438C3983.71 377.242 3974.33 397.086 3960.81 414.961C3947.72 432.844 3929.84 447.453 3907.16 458.797C3884.92 470.133 3856.79 475.805 3822.77 475.805ZM4408.17 33.5781L4128.16 430.008H4413.4V463.375H4082.36V430.664L4363.02 33.5781H4089.56V0.21875H4408.17V33.5781Z" fill="url(#paint0_linear_1845_1050)"/>
<defs>
<linearGradient id="paint0_linear_1845_1050" x1="0" y1="238" x2="4413.4" y2="238" gradientUnits="userSpaceOnUse">
<stop offset="0.197412" stop-color="#66FCF1"/>
<stop offset="0.821552" stop-color="white"/>
</linearGradient>
</defs>
</svg>
