<svg width="1021" height="142" viewBox="0 0 1021 142" fill="none" xmlns="http://www.w3.org/2000/svg">
<path d="M10.0899 112V13.984H44.2513C49.9209 13.984 55.11 15.2813 59.8186 17.8758C64.5272 20.4703 68.2749 24.0258 71.0616 28.5423C73.9444 33.0587 75.3858 38.2478 75.3858 44.1095C75.3858 49.683 74.1847 54.6318 71.7823 58.956C69.38 63.1842 66.1608 66.5955 62.1248 69.1901C58.185 71.7846 53.6686 73.4182 48.5756 74.0909L77.548 112H60.3952L32.8642 74.5233H24.0716V112H10.0899ZM24.0716 62.4154H43.9631C47.4224 62.4154 50.4494 61.5986 53.044 59.965C55.6385 58.3314 57.6565 56.1213 59.0979 53.3345C60.6354 50.5478 61.4041 47.4248 61.4041 43.9654C61.4041 40.506 60.6354 37.431 59.0979 34.7403C57.6565 32.0497 55.6385 29.9356 53.044 28.3981C50.4494 26.8606 47.4224 26.0919 43.9631 26.0919H24.0716V62.4154ZM125.649 113.297C117.962 113.297 111.283 111.952 105.614 109.261C99.9443 106.475 95.5239 102.439 92.3528 97.1535C89.2778 91.7722 87.7403 85.2858 87.7403 77.6944V13.984H101.722V77.5503C101.722 82.355 102.635 86.3909 104.461 89.6581C106.383 92.9253 109.121 95.3757 112.677 97.0093C116.328 98.6429 120.653 99.4597 125.649 99.4597C130.839 99.4597 135.163 98.6429 138.622 97.0093C142.178 95.2796 144.868 92.7812 146.694 89.514C148.616 86.2468 149.577 82.2589 149.577 77.5503V13.984H163.414V77.6944C163.414 85.2858 161.829 91.7722 158.658 97.1535C155.583 102.439 151.21 106.475 145.541 109.261C139.967 111.952 133.337 113.297 125.649 113.297ZM173.038 112L193.65 13.8399H204.749L231.415 88.505L257.937 13.8399H269.036L289.648 112H274.946L260.964 42.9564L236.604 111.568H226.226L201.722 42.9564L187.885 112H173.038ZM301.469 112V13.984H331.306C337.36 13.984 342.549 14.993 346.874 17.011C351.294 18.9328 354.705 21.6715 357.108 25.227C359.51 28.6864 360.711 32.7704 360.711 37.479C360.711 41.9954 359.75 46.1755 357.828 50.0193C356.002 53.767 353.072 56.5537 349.036 58.3795C353.072 59.3404 356.483 61.0701 359.27 63.5686C362.152 66.067 364.363 69.094 365.9 72.6495C367.438 76.1088 368.206 80.0007 368.206 84.3249C368.206 89.8984 366.861 94.7511 364.17 98.8832C361.48 103.015 357.684 106.234 352.783 108.541C347.882 110.847 342.165 112 335.63 112H301.469ZM315.451 99.8921H336.063C341.348 99.8921 345.672 98.3066 349.036 95.1355C352.399 91.9644 354.081 87.8804 354.081 82.8835C354.081 79.8085 353.312 77.0698 351.774 74.6674C350.237 72.2651 348.171 70.3432 345.576 68.9018C343.078 67.4604 340.291 66.7397 337.216 66.7397H315.451V99.8921ZM315.451 54.0552H331.739C336.063 54.0552 339.666 52.8541 342.549 50.4517C345.528 48.0494 347.018 44.4939 347.018 39.7853C347.018 35.3649 345.528 32.0016 342.549 29.6954C339.57 27.293 335.342 26.0919 329.865 26.0919H315.451V54.0552ZM381.141 112V13.984H395.122V98.739H436.347V112H381.141ZM452.226 112V13.984H511.468V26.8126H466.208V56.5056H510.027V69.3342H466.208V99.1714H511.468V112H452.226Z" fill="#66FCF1"/>
<path d="M569.904 112V13.984H583.885V56.3615H625.254V13.984H639.236V112H625.254V69.6225H583.885V112H569.904ZM650.492 112L690.708 13.984H700.509L740.58 112H725.446L716.076 87.6401H674.996L665.627 112H650.492ZM679.465 75.5323H711.464L695.608 33.7313L679.465 75.5323ZM787.516 113.297C779.829 113.297 773.15 111.952 767.481 109.261C761.811 106.475 757.391 102.439 754.22 97.1535C751.145 91.7722 749.607 85.2858 749.607 77.6944V13.984H763.589V77.5503C763.589 82.355 764.502 86.3909 766.328 89.6581C768.25 92.9253 770.988 95.3757 774.544 97.0093C778.195 98.6429 782.52 99.4597 787.516 99.4597C792.706 99.4597 797.03 98.6429 800.489 97.0093C804.045 95.2796 806.735 92.7812 808.561 89.514C810.483 86.2468 811.444 82.2589 811.444 77.5503V13.984H825.281V77.6944C825.281 85.2858 823.696 91.7722 820.525 97.1535C817.45 102.439 813.077 106.475 807.408 109.261C801.834 111.952 795.204 113.297 787.516 113.297ZM836.491 112L888.958 26.8126H839.518V13.984H912.885L860.418 99.1714H910.435V112H836.491Z" fill="#FFFEFE"/>
<line x1="8.97235" y1="133.063" x2="909.973" y2="130.132" stroke="#66FCF1" stroke-width="17"/>
<rect x="291" y="53.5625" width="21.0206" height="12.7625" fill="#66FCF1"/>
<rect y="62.5625" width="21.0206" height="12.7625" fill="#66FCF1"/>
<rect x="444" y="56.5625" width="21.0206" height="12.7625" fill="#66FCF1"/>
<rect x="292.787" y="100.602" width="21.0206" height="11.261" fill="#66FCF1"/>
<rect x="560" y="56.5625" width="23" height="13" fill="white"/>
</svg>
