<svg width="223" height="223" viewBox="0 0 223 223" fill="none" xmlns="http://www.w3.org/2000/svg">
<path d="M82.9975 59.3527V59.3751H105.417C109.986 59.3751 114.213 59.7728 118.098 60.5701C122.096 61.3675 125.523 62.6787 128.38 64.5018C131.236 66.3248 133.463 68.7169 135.063 71.6799C136.777 74.6409 137.633 78.287 137.633 82.6163C137.633 90.2512 134.892 96.0039 129.408 99.8785C123.924 103.753 115.984 105.688 105.588 105.688H82.9975V105.815H72V172H81.7678V114.064H104.56L139.176 172H151L115.184 113.38C119.411 113.038 123.467 112.183 127.352 110.817C131.35 109.334 134.777 107.342 137.633 104.834C140.604 102.213 142.946 99.0811 144.659 95.4349C146.487 91.6746 147.401 87.4024 147.401 82.6163C147.401 76.6923 146.316 71.737 144.145 67.7482C142.089 63.6473 139.233 60.3418 135.577 57.8355C131.921 55.3293 127.637 53.5633 122.725 52.5376C117.812 51.5119 112.557 51 106.959 51H72V59.3527H82.9975Z" fill="url(#paint0_linear_1854_1123)"/>
<defs>
<linearGradient id="paint0_linear_1854_1123" x1="304.704" y1="-133.787" x2="1460.33" y2="-133.787" gradientUnits="userSpaceOnUse">
<stop offset="0.197412" stop-color="#66FCF1"/>
<stop offset="0.821552" stop-color="white"/>
</linearGradient>
</defs>
</svg>
